<svg width="26" height="26" viewBox="0 0 26 26" fill="none" xmlns="http://www.w3.org/2000/svg">
<g clip-path="url(#clip0_201225_993)">
<path d="M18.2869 5.73562L22.2019 9.65055C22.3668 9.81548 22.3668 10.0846 22.2019 10.2495L12.7227 19.7287L8.69493 20.1757C8.15674 20.2365 7.70101 19.7808 7.76177 19.2426L8.20882 15.2148L17.688 5.73562C17.8529 5.57069 18.122 5.57069 18.2869 5.73562ZM25.3182 4.74169L23.2001 2.62364C22.5404 1.96391 21.4684 1.96391 20.8043 2.62364L19.2678 4.1601C19.1029 4.32503 19.1029 4.59412 19.2678 4.75905L23.1828 8.67398C23.3477 8.83891 23.6168 8.83891 23.7817 8.67398L25.3182 7.13753C25.9779 6.47346 25.9779 5.40141 25.3182 4.74169ZM17.4797 17.1505V21.5689H3.59077V7.68006H13.5647C13.7036 7.68006 13.8338 7.62364 13.9336 7.52815L15.6698 5.79204C15.9996 5.46218 15.7652 4.90228 15.3008 4.90228H2.89632C1.74615 4.90228 0.812988 5.83544 0.812988 6.98562V22.2634C0.812988 23.4136 1.74615 24.3467 2.89632 24.3467H18.1741C19.3243 24.3467 20.2574 23.4136 20.2574 22.2634V15.4144C20.2574 14.95 19.6975 14.72 19.3677 15.0455L17.6316 16.7816C17.5361 16.8814 17.4797 17.0117 17.4797 17.1505Z" fill="#e93ffb"/>
</g>
<defs>
<clipPath id="clip0_201225_993">
<rect width="25" height="25" fill="white" transform="translate(0.812988 0.735626)"/>
</clipPath>
</defs>
</svg>
