<svg width="26" height="26" viewBox="0 0 26 26" fill="none" xmlns="http://www.w3.org/2000/svg">
<path d="M9.1684 23.4944H4.4809C3.18695 23.4944 2.13715 22.4446 2.13715 21.1506V3.96313C2.13715 2.66919 3.18695 1.61938 4.4809 1.61938H9.1684C10.4623 1.61938 11.5121 2.66919 11.5121 3.96313V21.1506C11.5121 22.4446 10.4623 23.4944 9.1684 23.4944ZM24.0121 21.1506V3.96313C24.0121 2.66919 22.9623 1.61938 21.6684 1.61938H16.9809C15.687 1.61938 14.6371 2.66919 14.6371 3.96313V21.1506C14.6371 22.4446 15.687 23.4944 16.9809 23.4944H21.6684C22.9623 23.4944 24.0121 22.4446 24.0121 21.1506Z" fill="#e93ffb"/>
</svg>
