<svg width="26" height="26" viewBox="0 0 26 26" fill="none" xmlns="http://www.w3.org/2000/svg">
<g clip-path="url(#clip0_201225_995)">
<path d="M3.93799 23.3919C3.93799 24.0135 4.18492 24.6096 4.62446 25.0492C5.064 25.4887 5.66014 25.7356 6.28174 25.7356H20.3442C20.9658 25.7356 21.562 25.4887 22.0015 25.0492C22.4411 24.6096 22.688 24.0135 22.688 23.3919V6.98563H3.93799V23.3919ZM17.2192 10.8919C17.2192 10.6847 17.3015 10.486 17.4481 10.3395C17.5946 10.1929 17.7933 10.1106 18.0005 10.1106C18.2077 10.1106 18.4064 10.1929 18.5529 10.3395C18.6994 10.486 18.7817 10.6847 18.7817 10.8919V21.8294C18.7817 22.0366 18.6994 22.2353 18.5529 22.3818C18.4064 22.5283 18.2077 22.6106 18.0005 22.6106C17.7933 22.6106 17.5946 22.5283 17.4481 22.3818C17.3015 22.2353 17.2192 22.0366 17.2192 21.8294V10.8919ZM12.5317 10.8919C12.5317 10.6847 12.614 10.486 12.7606 10.3395C12.9071 10.1929 13.1058 10.1106 13.313 10.1106C13.5202 10.1106 13.7189 10.1929 13.8654 10.3395C14.0119 10.486 14.0942 10.6847 14.0942 10.8919V21.8294C14.0942 22.0366 14.0119 22.2353 13.8654 22.3818C13.7189 22.5283 13.5202 22.6106 13.313 22.6106C13.1058 22.6106 12.9071 22.5283 12.7606 22.3818C12.614 22.2353 12.5317 22.0366 12.5317 21.8294V10.8919ZM7.84424 10.8919C7.84424 10.6847 7.92655 10.486 8.07306 10.3395C8.21957 10.1929 8.41829 10.1106 8.62549 10.1106C8.83269 10.1106 9.0314 10.1929 9.17792 10.3395C9.32443 10.486 9.40674 10.6847 9.40674 10.8919V21.8294C9.40674 22.0366 9.32443 22.2353 9.17792 22.3818C9.0314 22.5283 8.83269 22.6106 8.62549 22.6106C8.41829 22.6106 8.21957 22.5283 8.07306 22.3818C7.92655 22.2353 7.84424 22.0366 7.84424 21.8294V10.8919ZM23.4692 2.29813H17.6099L17.1509 1.38505C17.0537 1.18984 16.9039 1.02564 16.7184 0.910907C16.533 0.796179 16.3192 0.735478 16.1011 0.735635H10.52C10.3024 0.734798 10.089 0.795272 9.9042 0.910129C9.7194 1.02498 9.57068 1.18958 9.4751 1.38505L9.01611 2.29813H3.15674C2.94954 2.29813 2.75082 2.38044 2.60431 2.52696C2.4578 2.67347 2.37549 2.87218 2.37549 3.07938V4.64188C2.37549 4.84909 2.4578 5.0478 2.60431 5.19431C2.75082 5.34082 2.94954 5.42313 3.15674 5.42313H23.4692C23.6764 5.42313 23.8752 5.34082 24.0217 5.19431C24.1682 5.0478 24.2505 4.84909 24.2505 4.64188V3.07938C24.2505 2.87218 24.1682 2.67347 24.0217 2.52696C23.8752 2.38044 23.6764 2.29813 23.4692 2.29813Z" fill="#e93ffb"/>
</g>
<defs>
<clipPath id="clip0_201225_995">
<rect width="25" height="25" fill="white" transform="translate(0.812988 0.735626)"/>
</clipPath>
</defs>
</svg>
